<svg xmlns="http://www.w3.org/2000/svg" viewBox="0 0 512 512">
  <defs>
    <linearGradient id="bg" x1="40" y1="20" x2="472" y2="492" gradientUnits="userSpaceOnUse">
      <stop stop-color="#151B2B"/>
      <stop offset="1" stop-color="#05070D"/>
    </linearGradient>
    <linearGradient id="red" x1="122" y1="110" x2="374" y2="416" gradientUnits="userSpaceOnUse">
      <stop stop-color="#FF5268"/>
      <stop offset="1" stop-color="#E4002B"/>
    </linearGradient>
    <filter id="glow" x="-40%" y="-40%" width="180%" height="180%">
      <feGaussianBlur stdDeviation="16" result="b"/>
      <feMerge><feMergeNode in="b"/><feMergeNode in="SourceGraphic"/></feMerge>
    </filter>
  </defs>
  <rect x="18" y="18" width="476" height="476" rx="112" fill="url(#bg)"/>
  <rect x="27" y="27" width="458" height="458" rx="103" fill="none" stroke="#FFFFFF" stroke-opacity=".12" stroke-width="6"/>
  <path d="M120 126v151c0 89 55 135 136 135 43 0 78-13 102-39l-55-67c-12 13-27 20-47 20-34 0-52-19-52-54V126h-84Z" fill="#F7F8FC"/>
  <path d="m242 210 68 112 82-150h-86l-43 82-21-44Z" fill="url(#red)" filter="url(#glow)"/>
  <path d="m322 122 72 43-72 43 18-43-18-43Z" fill="#62EAF5"/>
</svg>
